<?xml version="1.0" encoding="utf-8"?>
<!-- Uploaded to: SVG Repo, www.svgrepo.com, Generator: SVG Repo Mixer Tools -->
<svg width="800px" height="800px" viewBox="0 0 24 24" fill="none" xmlns="http://www.w3.org/2000/svg">
<g id="style=fill">
<g id="minus">
<path id="Subtract" fill-rule="evenodd" clip-rule="evenodd" d="M7.25 1.25C3.93629 1.25 1.25 3.93629 1.25 7.25L1.25 16.75C1.25 20.0637 3.93629 22.75 7.25 22.75L16.75 22.75C20.0637 22.75 22.75 20.0637 22.75 16.75L22.75 7.25C22.75 3.93629 20.0637 1.25 16.75 1.25L7.25 1.25ZM17.2132 12.6395C17.5641 12.6395 17.8486 12.3551 17.8486 12.0041C17.8486 11.6532 17.5641 11.3687 17.2132 11.3687L6.77862 11.3687C6.42769 11.3687 6.1432 11.6531 6.1432 12.0041C6.1432 12.355 6.42768 12.6395 6.77862 12.6395L17.2132 12.6395Z" fill="#000000"/>
</g>
</g>
</svg>